<mxfile host="65bd71144e">
    <diagram id="gZS-mhaNJf-lNtv3VUX3" name="Page-1">
        <mxGraphModel dx="746" dy="471" grid="1" gridSize="10" guides="1" tooltips="1" connect="1" arrows="1" fold="1" page="1" pageScale="1" pageWidth="850" pageHeight="1100" math="0" shadow="0">
            <root>
                <mxCell id="0"/>
                <mxCell id="1" parent="0"/>
                <mxCell id="2" value="Schuif de stoel naar achteren zolang die niet tegen de muur komt" style="rounded=0;whiteSpace=wrap;html=1;" vertex="1" parent="1">
                    <mxGeometry x="80" y="40" width="230" height="40" as="geometry"/>
                </mxCell>
                <mxCell id="3" value="Sta op" style="rounded=0;whiteSpace=wrap;html=1;" vertex="1" parent="1">
                    <mxGeometry x="80" y="80" width="230" height="40" as="geometry"/>
                </mxCell>
                <mxCell id="4" value="Draai 90 graden naar rechts" style="rounded=0;whiteSpace=wrap;html=1;" vertex="1" parent="1">
                    <mxGeometry x="80" y="120" width="230" height="40" as="geometry"/>
                </mxCell>
                <mxCell id="5" value="Loop zoalang de tas aan je linkerzijde is" style="rounded=0;whiteSpace=wrap;html=1;" vertex="1" parent="1">
                    <mxGeometry x="80" y="160" width="230" height="40" as="geometry"/>
                </mxCell>
                <mxCell id="6" value="Draain 90 graden naar links" style="rounded=0;whiteSpace=wrap;html=1;" vertex="1" parent="1">
                    <mxGeometry x="80" y="200" width="230" height="40" as="geometry"/>
                </mxCell>
                <mxCell id="7" value="Loop zolang de tafel aan je linkerzijde is" style="rounded=0;whiteSpace=wrap;html=1;" vertex="1" parent="1">
                    <mxGeometry x="80" y="240" width="230" height="40" as="geometry"/>
                </mxCell>
                <mxCell id="8" value="Draai 90 graden naar links" style="rounded=0;whiteSpace=wrap;html=1;" vertex="1" parent="1">
                    <mxGeometry x="80" y="280" width="230" height="40" as="geometry"/>
                </mxCell>
                <mxCell id="9" value="Loop totdat de deuropening zich aan je rechterkant bevindt" style="rounded=0;whiteSpace=wrap;html=1;" vertex="1" parent="1">
                    <mxGeometry x="80" y="320" width="230" height="40" as="geometry"/>
                </mxCell>
                <mxCell id="10" value="Draai 90 graden naar rechts" style="rounded=0;whiteSpace=wrap;html=1;" vertex="1" parent="1">
                    <mxGeometry x="80" y="360" width="230" height="40" as="geometry"/>
                </mxCell>
                <mxCell id="11" value="Loop door de deuropening" style="rounded=0;whiteSpace=wrap;html=1;" vertex="1" parent="1">
                    <mxGeometry x="80" y="400" width="230" height="40" as="geometry"/>
                </mxCell>
            </root>
        </mxGraphModel>
    </diagram>
</mxfile>